<?xml version="1.0" encoding="UTF-8"?>
<svg version="1.1" xmlns="http://www.w3.org/2000/svg" width="500" height="500">
<path d="M0 0 C1.61741896 1.23280437 3.22238671 2.48217098 4.8125 3.75 C5.6271875 4.3584375 6.441875 4.966875 7.28125 5.59375 C22.63146944 18.66986286 32.71333235 40.9548491 34.8125 60.75 C36.03603795 81.33511217 33.06520017 97.85095223 22.8125 115.75 C22.32910156 116.60078125 21.84570312 117.4515625 21.34765625 118.328125 C8.09900527 139.67957412 -13.05722566 151.53569123 -36.8359375 157.6484375 C-57.55910308 162.35108854 -79.33861889 156.80371756 -97.50390625 146.46875 C-102.43138654 143.31286742 -106.82776961 139.64148649 -111.1875 135.75 C-112.04472656 134.98816406 -112.90195313 134.22632813 -113.78515625 133.44140625 C-129.18985619 118.94146457 -138.704647 98.73104311 -139.46875 77.578125 C-140.02186545 51.04586834 -134.19041512 28.87174751 -115.56640625 9.11328125 C-102.39335982 -3.97324271 -86.40138581 -12.60263496 -68.1875 -16.25 C-67.4346875 -16.43691406 -66.681875 -16.62382812 -65.90625 -16.81640625 C-42.1995059 -20.5972232 -19.25890973 -13.80778976 0 0 Z " fill="#838383" transform="translate(303.1875,179.25)"/>
<path d="M0 0 C5.03880219 2.27527308 8.352993 5.89435511 11.515625 10.34765625 C12.134375 11.21390625 12.753125 12.08015625 13.390625 12.97265625 C15.44509363 19.13606215 15.66667384 25.75595755 13.671875 31.98046875 C10.07153219 39.15682773 4.07780724 43.81547099 -3.484375 46.34765625 C-10.78970928 47.29956344 -17.29071036 46.46469259 -23.484375 42.34765625 C-28.38201514 37.92156133 -32.07077175 32.59313762 -32.91796875 25.9453125 C-32.93139423 13.7952548 -32.93139423 13.7952548 -28.484375 8.34765625 C-20.03132885 -0.07074627 -12.13609799 -3.18667982 0 0 Z " fill="#181818" transform="translate(260.484375,179.65234375)"/>
<path d="M0 0 C6.85989026 3.52296059 11.95450256 8.7411163 14.3671875 16.12109375 C15.27922918 23.71437103 14.77537386 30.71141888 10.3671875 37.12109375 C5.76029793 42.14154544 1.24301202 45.69430641 -5.68359375 46.45703125 C-13.90851161 46.55553326 -19.48603343 45.98812979 -25.6015625 40.28515625 C-31.76467134 33.69265048 -33.12946713 28.02826662 -32.94140625 19.08984375 C-32.30193603 12.93797831 -29.78858799 8.9174345 -25.2578125 4.80859375 C-24.06657973 3.89014327 -22.85920076 2.99204647 -21.6328125 2.12109375 C-20.3334375 1.19296875 -20.3334375 1.19296875 -19.0078125 0.24609375 C-12.85607351 -1.80448591 -6.19627398 -2.06848909 0 0 Z " fill="#181818" transform="translate(305.6328125,213.87890625)"/>
<path d="M0 0 C5.99286329 2.69178685 9.8416109 6.4544546 13.07421875 12.15625 C15.11572328 18.28076359 15.30537831 26.54558475 13.203125 32.7109375 C9.90269988 38.27296541 5.05364303 42.69964257 -0.73828125 45.53125 C-9.9670774 47.34081787 -17.24451602 46.18530397 -25.11328125 41.09375 C-30.61481336 36.02932592 -33.2119771 29.47215148 -33.55078125 22.09375 C-33.24206019 15.42194494 -31.05115017 10.42070602 -26.43359375 5.59765625 C-18.46256274 -1.36150813 -10.27945915 -2.96443682 0 0 Z " fill="#191919" transform="translate(231.92578125,265.84375)"/>
<path d="M0 0 C6.82246059 3.69675178 10.31387456 8.64477995 12.7734375 15.9609375 C14.00161432 22.91400306 12.83122129 28.59631817 9.3984375 34.73046875 C5.69389005 39.81531633 0.70063381 42.99406518 -5.2265625 44.9609375 C-12.55536849 45.83028552 -19.24825211 45.58930683 -25.2265625 40.9609375 C-31.44046608 34.95621484 -34.51282559 30.50047084 -34.6640625 21.7109375 C-34.65005495 13.94235055 -32.89821907 9.68277617 -27.51171875 4.22265625 C-19.71361977 -2.92702312 -9.76415628 -4.3440532 0 0 Z " fill="#181818" transform="translate(217.2265625,215.0390625)"/>
<path d="M0 0 C5.85668576 3.5392015 10.47878122 8.98471031 12.5625 15.5 C13.67570634 23.78459874 12.55521583 30.70603802 7.5625 37.5 C1.73116582 43.4929703 -4.26598215 45.02902218 -12.3125 45.9375 C-18.4297304 45.73278953 -24.05016151 42.89225071 -28.3359375 38.59765625 C-33.95255687 31.46043993 -35.43541724 24.48125517 -34.4375 15.5 C-32.4125888 8.14367705 -26.86253249 3.33655929 -20.609375 -0.671875 C-14.55415397 -2.98070029 -5.9193494 -2.62823765 0 0 Z " fill="#181818" transform="translate(290.4375,266.5)"/>
<path d="M0 0 C2 1 2 1 3 3 C3.07942479 5.77419441 2.88472156 8.36263382 2 11 C-1 13 -1 13 -4.5625 12.8125 C-8 12 -8 12 -10 9 C-10.32162076 5.9124407 -10.48724515 3.85984439 -8.9375 1.125 C-5.8930714 -0.64273274 -3.4368988 -0.36823916 0 0 Z " fill="#1A1A1A" transform="translate(255,241)"/>
<path d="M0 0 C2.0625 0.4375 2.0625 0.4375 4 1 C3.67 2.65 3.34 4.3 3 6 C1.35 5.67 -0.3 5.34 -2 5 C-1.125 1.125 -1.125 1.125 0 0 Z " fill="#252525" transform="translate(263,244)"/>
<path d="M0 0 C2.0625 0.4375 2.0625 0.4375 4 1 C4.33 2.32 4.66 3.64 5 5 C3.35 5.33 1.7 5.66 0 6 C-0.38218767 4.34385343 -0.71395102 2.67542976 -1 1 C-0.67 0.67 -0.34 0.34 0 0 Z " fill="#232323" transform="translate(237,244)"/>
<path d="M0 0 C2.475 0.495 2.475 0.495 5 1 C4.67 2.65 4.34 4.3 4 6 C2.68 5.67 1.36 5.34 0 5 C0 3.35 0 1.7 0 0 Z " fill="#1F1F1F" transform="translate(249,257)"/>
<path d="M0 0 C1.65 0 3.3 0 5 0 C5 1.65 5 3.3 5 5 C3.35 5 1.7 5 0 5 C0 3.35 0 1.7 0 0 Z " fill="#1C1C1C" transform="translate(249,232)"/>
<path d="M0 0 C0.66 0.33 1.32 0.66 2 1 C1.25 3.4375 1.25 3.4375 0 6 C-2.125 6.8125 -2.125 6.8125 -4 7 C-2.92598892 4.08482708 -2.22189824 2.22189824 0 0 Z " fill="#282828" transform="translate(233,187)"/>
</svg>
